<?xml version="1.0" encoding="utf-8"?>
<!-- Material Design icons licensed under Pictogrammers Free License - https://pictogrammers.com/docs/general/license/ -->
<!-- https://github.com/Templarian/MaterialDesign/tree/master -->
<svg width="0" height="0" class="hidden">
  <defs>
    <symbol xmlns="http://www.w3.org/2000/svg" viewBox="0 0 24 24" id="lightbulb-question-outline">
      <path d="M8 2C11.9 2 15 5.1 15 9C15 11.4 13.8 13.5 12 14.7V17C12 17.6 11.6 18 11 18H5C4.4 18 4 17.6 4 17V14.7C2.2 13.5 1 11.4 1 9C1 5.1 4.1 2 8 2M5 21V20H11V21C11 21.6 10.6 22 10 22H6C5.4 22 5 21.6 5 21M8 4C5.2 4 3 6.2 3 9C3 11.1 4.2 12.8 6 13.6V16H10V13.6C11.8 12.8 13 11.1 13 9C13 6.2 10.8 4 8 4M20.5 14.5V16H19V14.5H20.5M18.5 9.5H17V9C17 7.3 18.3 6 20 6S23 7.3 23 9C23 10 22.5 10.9 21.7 11.4L21.4 11.6C20.8 12 20.5 12.6 20.5 13.3V13.5H19V13.3C19 12.1 19.6 11 20.6 10.4L20.9 10.2C21.3 9.9 21.5 9.5 21.5 9C21.5 8.2 20.8 7.5 20 7.5S18.5 8.2 18.5 9V9.5Z" />
    </symbol>
    <symbol xmlns="http://www.w3.org/2000/svg" viewBox="0 0 24 24" id="lightbulb-alert-outline">
      <path d="M10 2C13.9 2 17 5.1 17 9C17 11.4 15.8 13.5 14 14.7V17C14 17.6 13.6 18 13 18H7C6.4 18 6 17.6 6 17V14.7C4.2 13.5 3 11.4 3 9C3 5.1 6.1 2 10 2M7 21V20H13V21C13 21.6 12.6 22 12 22H8C7.4 22 7 21.6 7 21M10 4C7.2 4 5 6.2 5 9C5 11.1 6.2 12.8 8 13.6V16H12V13.6C13.8 12.8 15 11.1 15 9C15 6.2 12.8 4 10 4M19 12V7H21V13H19M19 17V15H21V17H19Z" />
    </symbol>
    <symbol xmlns="http://www.w3.org/2000/svg" viewBox="0 0 24 24" id="sync">
      <path d="M12,18A6,6 0 0,1 6,12C6,11 6.25,10.03 6.7,9.2L5.24,7.74C4.46,8.97 4,10.43 4,12A8,8 0 0,0 12,20V23L16,19L12,15M12,4V1L8,5L12,9V6A6,6 0 0,1 18,12C18,13 17.75,13.97 17.3,14.8L18.76,16.26C19.54,15.03 20,13.57 20,12A8,8 0 0,0 12,4Z" />
    </symbol>
    <symbol xmlns="http://www.w3.org/2000/svg" viewBox="0 0 24 24" id="check-circle-outline">
      <path d="M12 2C6.5 2 2 6.5 2 12S6.5 22 12 22 22 17.5 22 12 17.5 2 12 2M12 20C7.59 20 4 16.41 4 12S7.59 4 12 4 20 7.59 20 12 16.41 20 12 20M16.59 7.58L10 14.17L7.41 11.59L6 13L10 17L18 9L16.59 7.58Z" />
    </symbol>
    <symbol xmlns="http://www.w3.org/2000/svg" viewBox="0 0 24 24" id="server-network-off">
      <path d="M13,19H14A1,1 0 0,1 15,20H15.73L13,17.27V19M22,20V21.18L20.82,20H22M21,22.72L19.73,24L17.73,22H15A1,1 0 0,1 14,23H10A1,1 0 0,1 9,22H2V20H9A1,1 0 0,1 10,19H11V17H4A1,1 0 0,1 3,16V12A1,1 0 0,1 4,11H6.73L4.73,9H4A1,1 0 0,1 3,8V7.27L1,5.27L2.28,4L21,22.72M4,3H20A1,1 0 0,1 21,4V8A1,1 0 0,1 20,9H9.82L7,6.18V5H5.82L3.84,3C3.89,3 3.94,3 4,3M20,11A1,1 0 0,1 21,12V16A1,1 0 0,1 20,17H17.82L11.82,11H20M9,7H10V5H9V7M9,15H10V14.27L9,13.27V15M5,13V15H7V13H5Z" />
    </symbol>
    <symbol xmlns="http://www.w3.org/2000/svg" viewBox="0 0 24 24" id="power">
      <path d="M16.56,5.44L15.11,6.89C16.84,7.94 18,9.83 18,12A6,6 0 0,1 12,18A6,6 0 0,1 6,12C6,9.83 7.16,7.94 8.88,6.88L7.44,5.44C5.36,6.88 4,9.28 4,12A8,8 0 0,0 12,20A8,8 0 0,0 20,12C20,9.28 18.64,6.88 16.56,5.44M13,3H11V13H13" />
    </symbol>
    <symbol xmlns="http://www.w3.org/2000/svg" viewBox="0 0 24 24" id="send-outline">
      <path d="M4 6.03L11.5 9.25L4 8.25L4 6.03M11.5 14.75L4 17.97V15.75L11.5 14.75M2 3L2 10L17 12L2 14L2 21L23 12L2 3Z" />
    </symbol>
  </defs>
</svg>