<?xml version="1.0" encoding="UTF-8" standalone="no"?>
<svg
   viewBox="0 0 24 24"
   version="1.1"
   id="svg4"
   xmlns="http://www.w3.org/2000/svg"
   xmlns:svg="http://www.w3.org/2000/svg">
  <defs
     id="defs8" />
  <rect
     style="fill:#9e4747;fill-opacity:1;stroke:none;stroke-width:7.64322"
     id="rect1593"
     width="5.6240597"
     height="17.62406"
     x="3.0075188"
     y="3.1278193" />
  <rect
     style="fill:#649e47;fill-opacity:1;stroke:none;stroke-width:8.45811"
     id="rect1593-4"
     width="6.8872175"
     height="17.62406"
     x="8.6315784"
     y="3.1278193" />
  <rect
     style="fill:#47819e;fill-opacity:1;stroke:none;stroke-width:7.64322"
     id="rect1593-4-0"
     width="5.6240597"
     height="17.62406"
     x="15.518796"
     y="3.1278193" />
  <path
     d="M20 2H4C2.9 2 2 2.9 2 4V20C2 21.11 2.9 22 4 22H20C21.11 22 22 21.11 22 20V4C22 2.9 21.11 2 20 2M14.74 14H15V20H9V14H9.31C9.86 14 10.3 13.56 10.3 13V4H13.75V13C13.75 13.56 14.19 14 14.74 14M4 4H6.8V13C6.8 13.56 7.24 14 7.79 14H8V20H4V4M20 20H16V14H16.26C16.81 14 17.25 13.56 17.25 13V4H20V20Z"
     id="path2"
     style="stroke:#ffffff;stroke-opacity:1;paint-order:stroke fill markers;stroke-width:1;stroke-miterlimit:4;stroke-dasharray:none;stroke-dashoffset:0" />
</svg>
