<?xml version="1.0" encoding="utf-8"?>
<!-- Material Design icons licensed under Pictogrammers Free License - https://pictogrammers.com/docs/general/license/ -->
<!-- https://github.com/Templarian/MaterialDesign/tree/master -->
<svg>
  <defs>
    <symbol xmlns="http://www.w3.org/2000/svg" viewBox="0 0 24 24" id="alert">
      <path d="M13 14H11V9H13M13 18H11V16H13M1 21H23L12 2L1 21Z" />
    </symbol>
    <symbol xmlns="http://www.w3.org/2000/svg" viewBox="0 0 24 24" id="stop">
      <path d="M18,18H6V6H18V18Z" />
    </symbol>
    <symbol xmlns="http://www.w3.org/2000/svg" viewBox="0 0 24 24" id="check-all">
      <path d="M0.41,13.41L6,19L7.41,17.58L1.83,12M22.24,5.58L11.66,16.17L7.5,12L6.07,13.41L11.66,19L23.66,7M18,7L16.59,5.58L10.24,11.93L11.66,13.34L18,7Z" />
    </symbol>
    <svg xmlns="http://www.w3.org/2000/svg" viewBox="0 0 24 24" id="send-fail-outline">
      <g>
        <rect fill="none" height="24"/>
      </g>
      <g>
        <g>
          <path d="M16.5,9c-0.42,0-0.83,0.04-1.24,0.11L1.01,3L1,10l10.06,1.34c-0.42,0.44-0.78,0.93-1.09,1.46L1,14l0.01,7l8.07-3.46 C9.59,21.19,12.71,24,16.5,24c4.14,0,7.5-3.36,7.5-7.5S20.64,9,16.5,9z M3,8.25l0.01-2.22l7.51,3.22L3,8.25z M9.1,15.36L3,17.97 v-2.22l6.17-0.82C9.14,15.07,9.12,15.21,9.1,15.36z M16.5,22c-3.03,0-5.5-2.47-5.5-5.5s2.47-5.5,5.5-5.5s5.5,2.47,5.5,5.5 S19.53,22,16.5,22z"/>
          <polygon points="18.27,14.03 16.5,15.79 14.73,14.03 14.03,14.73 15.79,16.5 14.03,18.27 14.73,18.97 16.5,17.21 18.27,18.97 18.97,18.27 17.21,16.5 18.97,14.73"/>
        </g>
      </g>
    </svg>
    <symbol xmlns="http://www.w3.org/2000/svg" viewBox="0 0 24 24" id="send-check-outline">
      <path d="M2 3V10L17 12L2 14V21L23 12M4 6.03L11.53 9.25L4 8.25M11.53 14.75L4 17.97V15.75M22 15.5L18.5 19L16.5 17L15 18.5L18.5 22L23.5 17Z" />
    </symbol>
    <symbol xmlns="http://www.w3.org/2000/svg" viewBox="0 0 24 24" id="send-outline">
      <path d="M4 6.03L11.5 9.25L4 8.25L4 6.03M11.5 14.75L4 17.97V15.75L11.5 14.75M2 3L2 10L17 12L2 14L2 21L23 12L2 3Z" />
    </symbol>
    <symbol xmlns="http://www.w3.org/2000/svg" viewBox="0 0 24 24" id="record">
      <path d="M19,12C19,15.86 15.86,19 12,19C8.14,19 5,15.86 5,12C5,8.14 8.14,5 12,5C15.86,5 19,8.14 19,12Z" />
    </symbol>
    <symbol xmlns="http://www.w3.org/2000/svg" viewBox="0 0 24 24" id="stop">
      <path d="M18,18H6V6H18V18Z" />
    </symbol>
    <symbol xmlns="http://www.w3.org/2000/svg" viewBox="0 0 24 24" id="play">
      <path d="M8,5.14V19.14L19,12.14L8,5.14Z" />
    </symbol>
  </defs>
</svg>