<?xml version="1.0" encoding="utf-8"?>
<!-- Material Design icons licensed under Pictogrammers Free License - https://pictogrammers.com/docs/general/license/ -->
<!-- https://github.com/Templarian/MaterialDesign/tree/master -->
<svg width="0" height="0" class="hidden">
  <defs>
    <svg xmlns="http://www.w3.org/2000/svg" viewBox="0 0 24 24" id="play">
      <path d="M8,5.14V19.14L19,12.14L8,5.14Z" />
    </svg>
    <svg xmlns="http://www.w3.org/2000/svg" viewBox="0 0 24 24" id="music-note-plus">
      <path d="M17 9V12H14V14H17V17H19V14H22V12H19V9H17M9 3V13.55C8.41 13.21 7.73 13 7 13C4.79 13 3 14.79 3 17S4.79 21 7 21 11 19.21 11 17V7H15V3H9Z" />
    </svg>
    <svg xmlns="http://www.w3.org/2000/svg" viewBox="0 0 24 24" id="playlist-music">
      <path d="M15,6H3V8H15V6M15,10H3V12H15V10M3,16H11V14H3V16M17,6V14.18C16.69,14.07 16.35,14 16,14A3,3 0 0,0 13,17A3,3 0 0,0 16,20A3,3 0 0,0 19,17V8H22V6H17Z" />
    </svg>
    <symbol xmlns="http://www.w3.org/2000/svg" viewBox="0 0 24 24" id="cancel">
      <path d="M12 2C17.5 2 22 6.5 22 12S17.5 22 12 22 2 17.5 2 12 6.5 2 12 2M12 4C10.1 4 8.4 4.6 7.1 5.7L18.3 16.9C19.3 15.5 20 13.8 20 12C20 7.6 16.4 4 12 4M16.9 18.3L5.7 7.1C4.6 8.4 4 10.1 4 12C4 16.4 7.6 20 12 20C13.9 20 15.6 19.4 16.9 18.3Z" />
    </symbol>
    <symbol xmlns="http://www.w3.org/2000/svg" viewBox="0 0 24 24" id="close">
      <path d="M19,6.41L17.59,5L12,10.59L6.41,5L5,6.41L10.59,12L5,17.59L6.41,19L12,13.41L17.59,19L19,17.59L13.41,12L19,6.41Z" />
    </symbol>
  </defs>
</svg>